<svg width="44" height="12" viewBox="0 0 44 12" fill="none" xmlns="http://www.w3.org/2000/svg">
<path d="M0.66 1.404C0.66 1.18 0.744 0.992 0.912 0.84C1.088 0.68 1.3 0.599999 1.548 0.599999H7.008C7.008 1.128 6.92 1.512 6.744 1.752C6.568 1.992 6.284 2.112 5.892 2.112H2.424V3.948H5.568C5.568 4.476 5.48 4.86 5.304 5.1C5.128 5.34 4.844 5.46 4.452 5.46H2.424V7.896C2.424 8.32 2.284 8.628 2.004 8.82C1.732 9.012 1.284 9.108 0.66 9.108V1.404ZM9.66169 4.308C9.18169 4.308 8.79369 4.432 8.49769 4.68C8.20169 4.928 8.05369 5.24 8.05369 5.616V8.148C8.05369 8.492 7.91769 8.74 7.64569 8.892C7.38169 9.036 6.96969 9.108 6.40969 9.108V4.14C6.40969 3.74 6.54169 3.432 6.80569 3.216C7.06969 3 7.46169 2.892 7.98169 2.892V3.6C7.86169 3.728 7.76169 3.864 7.68169 4.008L7.76569 4.056C8.26969 3.28 8.89769 2.892 9.64969 2.892C10.0097 2.892 10.2817 2.988 10.4657 3.18C10.6497 3.372 10.7417 3.616 10.7417 3.912C10.7417 4.136 10.6817 4.332 10.5617 4.5C10.3377 4.372 10.0377 4.308 9.66169 4.308ZM11.5266 3.984C11.5266 3.68 11.6546 3.424 11.9106 3.216C12.1666 3 12.5426 2.892 13.0386 2.892V3.54C12.9426 3.66 12.8666 3.768 12.8106 3.864L12.8706 3.912C13.1186 3.568 13.3946 3.312 13.6986 3.144C14.0106 2.976 14.3986 2.892 14.8626 2.892C15.2946 2.892 15.6786 2.984 16.0146 3.168C16.3586 3.352 16.6226 3.612 16.8066 3.948C16.9986 4.276 17.0946 4.652 17.0946 5.076V6.924C17.0946 7.356 16.9866 7.74 16.7706 8.076C16.5626 8.404 16.2706 8.66 15.8946 8.844C15.5266 9.02 15.1106 9.108 14.6466 9.108C14.3746 9.108 14.0786 9.052 13.7586 8.94C13.4466 8.828 13.1866 8.672 12.9786 8.472L12.9306 8.532C12.9706 8.596 13.0586 8.676 13.1946 8.772V10.428C13.1946 11.148 12.6386 11.508 11.5266 11.508V3.984ZM14.3106 7.692C14.6786 7.692 14.9586 7.616 15.1506 7.464C15.3506 7.312 15.4506 7.096 15.4506 6.816V5.196C15.4506 4.908 15.3506 4.688 15.1506 4.536C14.9586 4.384 14.6786 4.308 14.3106 4.308C13.9746 4.308 13.6986 4.388 13.4826 4.548C13.2746 4.7 13.1706 4.896 13.1706 5.136V6.864C13.1706 7.096 13.2746 7.292 13.4826 7.452C13.6986 7.612 13.9746 7.692 14.3106 7.692ZM21.9728 2.436C21.6688 2.436 21.4128 2.348 21.2048 2.172C21.0048 1.988 20.9048 1.752 20.9048 1.464C20.9048 1.176 21.0048 0.944 21.2048 0.767999C21.4128 0.583999 21.6688 0.491999 21.9728 0.491999C22.2768 0.491999 22.5288 0.583999 22.7288 0.767999C22.9368 0.944 23.0408 1.176 23.0408 1.464C23.0408 1.752 22.9368 1.988 22.7288 2.172C22.5288 2.348 22.2768 2.436 21.9728 2.436ZM21.1448 3.852C21.1448 3.508 21.2808 3.264 21.5528 3.12C21.8248 2.968 22.2368 2.892 22.7888 2.892V8.148C22.7888 8.492 22.6528 8.74 22.3808 8.892C22.1088 9.036 21.6968 9.108 21.1448 9.108V3.852ZM24.1819 4.14C24.1819 3.74 24.3139 3.432 24.5779 3.216C24.8419 3 25.2339 2.892 25.7539 2.892V3.6C25.6339 3.728 25.5339 3.864 25.4539 4.008L25.5379 4.056C25.7779 3.688 26.0819 3.404 26.4499 3.204C26.8259 2.996 27.2419 2.892 27.6979 2.892C28.0979 2.892 28.4499 2.984 28.7539 3.168C29.0659 3.352 29.3099 3.608 29.4859 3.936C29.6619 4.256 29.7499 4.616 29.7499 5.016V8.148C29.7499 8.492 29.6139 8.74 29.3419 8.892C29.0699 9.036 28.6579 9.108 28.1059 9.108V5.268C28.1059 4.996 28.0179 4.768 27.8419 4.584C27.6739 4.4 27.4339 4.308 27.1219 4.308C26.7379 4.308 26.4259 4.432 26.1859 4.68C25.9459 4.928 25.8259 5.24 25.8259 5.616V8.148C25.8259 8.492 25.6899 8.74 25.4179 8.892C25.1539 9.036 24.7419 9.108 24.1819 9.108V4.14Z" fill="#0052D9"/>
<path d="M37.2877 9.108C36.5997 9.108 35.9797 8.972 35.4277 8.7C34.8837 8.42 34.4557 8.032 34.1437 7.536C33.8397 7.04 33.6877 6.484 33.6877 5.868V1.764C33.6877 1.348 33.8357 1.032 34.1317 0.816C34.4357 0.599999 34.8757 0.491999 35.4517 0.491999V5.868C35.4517 6.388 35.6157 6.804 35.9437 7.116C36.2797 7.42 36.7277 7.572 37.2877 7.572C37.8477 7.572 38.2917 7.42 38.6197 7.116C38.9557 6.804 39.1237 6.388 39.1237 5.868V1.764C39.1237 1.348 39.2717 1.032 39.5677 0.816C39.8717 0.599999 40.3117 0.491999 40.8877 0.491999V5.868C40.8877 6.484 40.7317 7.04 40.4197 7.536C40.1157 8.032 39.6877 8.42 39.1357 8.7C38.5917 8.972 37.9757 9.108 37.2877 9.108ZM42.21 1.776C42.21 1.376 42.362 1.064 42.666 0.84C42.978 0.608 43.414 0.491999 43.974 0.491999V7.824C43.974 8.232 43.818 8.548 43.506 8.772C43.202 8.996 42.77 9.108 42.21 9.108V1.776Z" fill="#E60B0B"/>
</svg>
